<svg id="visual" viewBox="0 0 960 540" width="960" height="540" xmlns="http://www.w3.org/2000/svg" xmlns:xlink="http://www.w3.org/1999/xlink" version="1.1"><path d="M0 12L13.3 13.8C26.7 15.7 53.3 19.3 80 24.7C106.7 30 133.3 37 160 40.5C186.7 44 213.3 44 240 41.3C266.7 38.7 293.3 33.3 320 33.3C346.7 33.3 373.3 38.7 400 42.3C426.7 46 453.3 48 480 43.5C506.7 39 533.3 28 560 23.5C586.7 19 613.3 21 640 25.5C666.7 30 693.3 37 720 40.5C746.7 44 773.3 44 800 37.7C826.7 31.3 853.3 18.7 880 15.2C906.7 11.7 933.3 17.3 946.7 20.2L960 23L960 0L946.7 0C933.3 0 906.7 0 880 0C853.3 0 826.7 0 800 0C773.3 0 746.7 0 720 0C693.3 0 666.7 0 640 0C613.3 0 586.7 0 560 0C533.3 0 506.7 0 480 0C453.3 0 426.7 0 400 0C373.3 0 346.7 0 320 0C293.3 0 266.7 0 240 0C213.3 0 186.7 0 160 0C133.3 0 106.7 0 80 0C53.3 0 26.7 0 13.3 0L0 0Z" fill="#ffffff"></path><path d="M0 33L13.3 35.8C26.7 38.7 53.3 44.3 80 54.3C106.7 64.3 133.3 78.7 160 89.3C186.7 100 213.3 107 240 101.5C266.7 96 293.3 78 320 75.3C346.7 72.7 373.3 85.3 400 89.8C426.7 94.3 453.3 90.7 480 85.3C506.7 80 533.3 73 560 64C586.7 55 613.3 44 640 43C666.7 42 693.3 51 720 55.5C746.7 60 773.3 60 800 61C826.7 62 853.3 64 880 73C906.7 82 933.3 98 946.7 106L960 114L960 21L946.7 18.2C933.3 15.3 906.7 9.7 880 13.2C853.3 16.7 826.7 29.3 800 35.7C773.3 42 746.7 42 720 38.5C693.3 35 666.7 28 640 23.5C613.3 19 586.7 17 560 21.5C533.3 26 506.7 37 480 41.5C453.3 46 426.7 44 400 40.3C373.3 36.7 346.7 31.3 320 31.3C293.3 31.3 266.7 36.7 240 39.3C213.3 42 186.7 42 160 38.5C133.3 35 106.7 28 80 22.7C53.3 17.3 26.7 13.7 13.3 11.8L0 10Z" fill="#f4f4f4"></path><path d="M0 87L13.3 110.5C26.7 134 53.3 181 80 203.5C106.7 226 133.3 224 160 215.8C186.7 207.7 213.3 193.3 240 179C266.7 164.7 293.3 150.3 320 166.5C346.7 182.7 373.3 229.3 400 235.7C426.7 242 453.3 208 480 188.3C506.7 168.7 533.3 163.3 560 147.2C586.7 131 613.3 104 640 101.2C666.7 98.3 693.3 119.7 720 121.3C746.7 123 773.3 105 800 117.7C826.7 130.3 853.3 173.7 880 190.8C906.7 208 933.3 199 946.7 194.5L960 190L960 112L946.7 104C933.3 96 906.7 80 880 71C853.3 62 826.7 60 800 59C773.3 58 746.7 58 720 53.5C693.3 49 666.7 40 640 41C613.3 42 586.7 53 560 62C533.3 71 506.7 78 480 83.3C453.3 88.7 426.7 92.3 400 87.8C373.3 83.3 346.7 70.7 320 73.3C293.3 76 266.7 94 240 99.5C213.3 105 186.7 98 160 87.3C133.3 76.7 106.7 62.3 80 52.3C53.3 42.3 26.7 36.7 13.3 33.8L0 31Z" fill="#e8e8e8"></path><path d="M0 136L13.3 155.8C26.7 175.7 53.3 215.3 80 237C106.7 258.7 133.3 262.3 160 253.3C186.7 244.3 213.3 222.7 240 208.2C266.7 193.7 293.3 186.3 320 207C346.7 227.7 373.3 276.3 400 282.7C426.7 289 453.3 253 480 226.8C506.7 200.7 533.3 184.3 560 167.2C586.7 150 613.3 132 640 131.2C666.7 130.3 693.3 146.7 720 146.7C746.7 146.7 773.3 130.3 800 143.8C826.7 157.3 853.3 200.7 880 221.5C906.7 242.3 933.3 240.7 946.7 239.8L960 239L960 188L946.7 192.5C933.3 197 906.7 206 880 188.8C853.3 171.7 826.7 128.3 800 115.7C773.3 103 746.7 121 720 119.3C693.3 117.7 666.7 96.3 640 99.2C613.3 102 586.7 129 560 145.2C533.3 161.3 506.7 166.7 480 186.3C453.3 206 426.7 240 400 233.7C373.3 227.3 346.7 180.7 320 164.5C293.3 148.3 266.7 162.7 240 177C213.3 191.3 186.7 205.7 160 213.8C133.3 222 106.7 224 80 201.5C53.3 179 26.7 132 13.3 108.5L0 85Z" fill="#dddddd"></path><path d="M0 168L13.3 184.3C26.7 200.7 53.3 233.3 80 256.8C106.7 280.3 133.3 294.7 160 291.8C186.7 289 213.3 269 240 251C266.7 233 293.3 217 320 235C346.7 253 373.3 305 400 316.7C426.7 328.3 453.3 299.7 480 274.5C506.7 249.3 533.3 227.7 560 209.7C586.7 191.7 613.3 177.3 640 173.8C666.7 170.3 693.3 177.7 720 176.8C746.7 176 773.3 167 800 189.5C826.7 212 853.3 266 880 282.2C906.7 298.3 933.3 276.7 946.7 265.8L960 255L960 237L946.7 237.8C933.3 238.7 906.7 240.3 880 219.5C853.3 198.7 826.7 155.3 800 141.8C773.3 128.3 746.7 144.7 720 144.7C693.3 144.7 666.7 128.3 640 129.2C613.3 130 586.7 148 560 165.2C533.3 182.3 506.7 198.7 480 224.8C453.3 251 426.7 287 400 280.7C373.3 274.3 346.7 225.7 320 205C293.3 184.3 266.7 191.7 240 206.2C213.3 220.7 186.7 242.3 160 251.3C133.3 260.3 106.7 256.7 80 235C53.3 213.3 26.7 173.7 13.3 153.8L0 134Z" fill="#d2d2d2"></path><path d="M0 276L13.3 290.5C26.7 305 53.3 334 80 352C106.7 370 133.3 377 160 364.3C186.7 351.7 213.3 319.3 240 306.8C266.7 294.3 293.3 301.7 320 320.7C346.7 339.7 373.3 370.3 400 379.3C426.7 388.3 453.3 375.7 480 363C506.7 350.3 533.3 337.7 560 325C586.7 312.3 613.3 299.7 640 293.3C666.7 287 693.3 287 720 284.3C746.7 281.7 773.3 276.3 800 285.3C826.7 294.3 853.3 317.7 880 324C906.7 330.3 933.3 319.7 946.7 314.3L960 309L960 253L946.7 263.8C933.3 274.7 906.7 296.3 880 280.2C853.3 264 826.7 210 800 187.5C773.3 165 746.7 174 720 174.8C693.3 175.7 666.7 168.3 640 171.8C613.3 175.3 586.7 189.7 560 207.7C533.3 225.7 506.7 247.3 480 272.5C453.3 297.7 426.7 326.3 400 314.7C373.3 303 346.7 251 320 233C293.3 215 266.7 231 240 249C213.3 267 186.7 287 160 289.8C133.3 292.7 106.7 278.3 80 254.8C53.3 231.3 26.7 198.7 13.3 182.3L0 166Z" fill="#c7c7c7"></path><path d="M0 487L13.3 474.3C26.7 461.7 53.3 436.3 80 428.2C106.7 420 133.3 429 160 439C186.7 449 213.3 460 240 460C266.7 460 293.3 449 320 443.5C346.7 438 373.3 438 400 445.3C426.7 452.7 453.3 467.3 480 471C506.7 474.7 533.3 467.3 560 458.3C586.7 449.3 613.3 438.7 640 439.5C666.7 440.3 693.3 452.7 720 452.7C746.7 452.7 773.3 440.3 800 435.8C826.7 431.3 853.3 434.7 880 438.2C906.7 441.7 933.3 445.3 946.7 447.2L960 449L960 307L946.7 312.3C933.3 317.7 906.7 328.3 880 322C853.3 315.7 826.7 292.3 800 283.3C773.3 274.3 746.7 279.7 720 282.3C693.3 285 666.7 285 640 291.3C613.3 297.7 586.7 310.3 560 323C533.3 335.7 506.7 348.3 480 361C453.3 373.7 426.7 386.3 400 377.3C373.3 368.3 346.7 337.7 320 318.7C293.3 299.7 266.7 292.3 240 304.8C213.3 317.3 186.7 349.7 160 362.3C133.3 375 106.7 368 80 350C53.3 332 26.7 303 13.3 288.5L0 274Z" fill="#bcbcbc"></path><path d="M0 498L13.3 497C26.7 496 53.3 494 80 496.7C106.7 499.3 133.3 506.7 160 509.5C186.7 512.3 213.3 510.7 240 508C266.7 505.3 293.3 501.7 320 501.7C346.7 501.7 373.3 505.3 400 508.8C426.7 512.3 453.3 515.7 480 512C506.7 508.3 533.3 497.7 560 494.2C586.7 490.7 613.3 494.3 640 498.8C666.7 503.3 693.3 508.7 720 506.8C746.7 505 773.3 496 800 496.8C826.7 497.7 853.3 508.3 880 509.2C906.7 510 933.3 501 946.7 496.5L960 492L960 447L946.7 445.2C933.3 443.3 906.7 439.7 880 436.2C853.3 432.7 826.7 429.3 800 433.8C773.3 438.3 746.7 450.7 720 450.7C693.3 450.7 666.7 438.3 640 437.5C613.3 436.7 586.7 447.3 560 456.3C533.3 465.3 506.7 472.7 480 469C453.3 465.3 426.7 450.7 400 443.3C373.3 436 346.7 436 320 441.5C293.3 447 266.7 458 240 458C213.3 458 186.7 447 160 437C133.3 427 106.7 418 80 426.2C53.3 434.3 26.7 459.7 13.3 472.3L0 485Z" fill="#b1b1b1"></path><path d="M0 541L13.3 541C26.7 541 53.3 541 80 541C106.7 541 133.3 541 160 541C186.7 541 213.3 541 240 541C266.7 541 293.3 541 320 541C346.7 541 373.3 541 400 541C426.7 541 453.3 541 480 541C506.7 541 533.3 541 560 541C586.7 541 613.3 541 640 541C666.7 541 693.3 541 720 541C746.7 541 773.3 541 800 541C826.7 541 853.3 541 880 541C906.7 541 933.3 541 946.7 541L960 541L960 490L946.7 494.5C933.3 499 906.7 508 880 507.2C853.3 506.3 826.7 495.7 800 494.8C773.3 494 746.7 503 720 504.8C693.3 506.7 666.7 501.3 640 496.8C613.3 492.3 586.7 488.7 560 492.2C533.3 495.7 506.7 506.3 480 510C453.3 513.7 426.7 510.3 400 506.8C373.3 503.3 346.7 499.7 320 499.7C293.3 499.7 266.7 503.3 240 506C213.3 508.7 186.7 510.3 160 507.5C133.3 504.7 106.7 497.3 80 494.7C53.3 492 26.7 494 13.3 495L0 496Z" fill="#a6a6a6"></path></svg>