<?xml version="1.0" encoding="utf-8"?>
<!-- Generator: Adobe Illustrator 26.3.1, SVG Export Plug-In . SVG Version: 6.00 Build 0)  -->
<svg version="1.1" id="Layer_2" xmlns="http://www.w3.org/2000/svg" xmlns:xlink="http://www.w3.org/1999/xlink" x="0px" y="0px"
	 viewBox="0 0 259.2 259.68" style="enable-background:new 0 0 259.2 259.68;" xml:space="preserve">
<style type="text/css">
	.st0{fill:#FFB579;}
	.st1{fill:#E4A572;}
	.st2{fill:#E7AE80;}
</style>
<circle class="st0" cx="129.6" cy="129.84" r="129.6"/>
<path class="st1" d="M235.7,190.51c-21.07,36.76-60.69,61.53-106.1,61.53c-67.49,0-122.2-54.71-122.2-122.2
	c0-43.74,22.99-82.12,57.54-103.71"/>
<path class="st2" d="M64.94,26.13C83.7,14.41,105.86,7.64,129.6,7.64c67.49,0,122.2,54.71,122.2,122.2
	c0,22.08-5.86,42.79-16.1,60.67"/>
<g>
	<g transform="translate(0.000000,670.000000) scale(0.100000,-0.100000)">
		<path d="M1258.07,5897.23l-37.77-37.61l38.57-38.41l38.57-38.41l37.29,38.25l37.45,38.09l-37.45,37.93
			c-20.56,20.88-37.61,37.93-38.09,37.77C1296.16,5934.84,1278.79,5917.94,1258.07,5897.23z"/>
		<path d="M623.32,5668.06l-74.9-37.77l-0.48-342.64l-0.32-342.48l38.25-38.41l38.25-38.41l38.25,38.41l38.25,38.25v75.7v75.7
			l74.26,37.45c40.8,20.56,74.26,38.25,74.26,39.04c0,0.96-32.51,18.17-72.19,38.25c-39.84,20.24-73.31,37.29-74.42,37.93
			c-1.43,0.96-1.91,34.74-1.91,153.31v151.88l74.42,37.45c40.96,20.56,74.74,38.09,74.9,38.89c0.48,1.27-145.5,74.26-149.8,74.9
			C699.01,5705.67,664.59,5688.78,623.32,5668.06z"/>
		<path d="M928.18,5668.85c-41.12-20.4-74.58-37.45-74.58-37.93s33.47-17.85,74.58-38.57l74.42-37.61V5402.4v-152.35l-74.42-37.77
			c-41.12-20.72-74.58-38.09-74.58-38.57s33.94-18.01,75.38-38.89l75.22-38.09l76.97,38.57l76.81,38.57v228.69v228.69l-9.88,4.46
			c-5.58,2.55-40,19.28-76.81,37.45c-36.65,18.01-67.09,32.83-67.73,32.67C1003.08,5705.83,969.14,5689.09,928.18,5668.85z"/>
		<path d="M1257.91,5668.06l-37.77-37.77v-228.53v-228.37l38.41-38.25l38.25-38.25l37.29,37.93l37.29,38.09v229.49l0.16,229.49
			l-37.13,37.13c-20.24,20.24-37.29,36.97-37.77,36.97C1296.16,5705.99,1278.79,5688.94,1257.91,5668.06z"/>
		<path d="M1512.1,5668.38l-75.22-37.29l0.32-228.85l0.48-228.69l75.54-38.25l75.38-38.25l75.54,37.93
			c41.43,20.88,75.54,38.25,75.54,38.73s-32.03,16.89-71.08,36.65c-39.04,19.76-73.15,37.13-75.7,38.57l-4.62,2.87l0.32,150.92
			l0.48,151.08l75.38,37.29c41.28,20.56,75.22,37.77,75.22,38.25c0,0.96-150.12,76.81-151.4,76.5
			C1587.79,5705.83,1553.53,5688.94,1512.1,5668.38z"/>
		<path d="M1818.24,5668.06c-41.43-20.72-75.38-38.25-75.38-38.88c0-0.64,6.69-4.3,14.82-8.13c7.97-3.98,39.36-19.28,69.64-34.1
			c30.28-14.98,57.69-28.37,60.88-29.8l5.9-2.87l74.42,37.45c41.12,20.56,74.9,38.09,75.06,38.89
			c0.48,1.12-147.89,75.7-149.64,75.22C1893.62,5705.83,1859.51,5688.78,1818.24,5668.06z"/>
		<path d="M1817.44,5212.59c-41.12-20.4-74.58-37.77-74.58-38.41c0-0.8,34.1-18.33,75.86-39.2l75.7-37.93l74.42,37.61
			c40.96,20.72,74.9,38.25,75.54,38.73c1.12,1.12-148.21,76.97-151.08,76.65C1892.5,5250.04,1858.4,5233.15,1817.44,5212.59z"/>
	</g>
</g>
</svg>
