<svg id="visual" viewBox="0 0 960 540" width="960" height="540" xmlns="http://www.w3.org/2000/svg" xmlns:xlink="http://www.w3.org/1999/xlink" version="1.1"><path d="M0 23L80 23C160 23 320 23 480 25.7C640 28.3 800 33.7 880 36.3L960 39L960 0L880 0C800 0 640 0 480 0C320 0 160 0 80 0L0 0Z" fill="#d8d8d8"></path><path d="M0 120L80 122.7C160 125.3 320 130.7 480 128C640 125.3 800 114.7 880 109.3L960 104L960 37L880 34.3C800 31.7 640 26.3 480 23.7C320 21 160 21 80 21L0 21Z" fill="#e1e1e1"></path><path d="M0 141L80 141C160 141 320 141 480 137.5C640 134 800 127 880 123.5L960 120L960 102L880 107.3C800 112.7 640 123.3 480 126C320 128.7 160 123.3 80 120.7L0 118Z" fill="#e9e9e9"></path><path d="M0 206L80 205.2C160 204.3 320 202.7 480 194.7C640 186.7 800 172.3 880 165.2L960 158L960 118L880 121.5C800 125 640 132 480 135.5C320 139 160 139 80 139L0 139Z" fill="#f2f2f2"></path><path d="M0 325L80 320.5C160 316 320 307 480 295.3C640 283.7 800 269.3 880 262.2L960 255L960 156L880 163.2C800 170.3 640 184.7 480 192.7C320 200.7 160 202.3 80 203.2L0 204Z" fill="#fbfbfb"></path><path d="M0 341L80 334.7C160 328.3 320 315.7 480 304.8C640 294 800 285 880 280.5L960 276L960 253L880 260.2C800 267.3 640 281.7 480 293.3C320 305 160 314 80 318.5L0 323Z" fill="#ffffff"></path><path d="M0 357L80 349.8C160 342.7 320 328.3 480 319.3C640 310.3 800 306.7 880 304.8L960 303L960 274L880 278.5C800 283 640 292 480 302.8C320 313.7 160 326.3 80 332.7L0 339Z" fill="#ffffff"></path><path d="M0 395L80 390.5C160 386 320 377 480 378C640 379 800 390 880 395.5L960 401L960 301L880 302.8C800 304.7 640 308.3 480 317.3C320 326.3 160 340.7 80 347.8L0 355Z" fill="#fbfbfb"></path><path d="M0 417L80 414.3C160 411.7 320 406.3 480 406.3C640 406.3 800 411.7 880 414.3L960 417L960 399L880 393.5C800 388 640 377 480 376C320 375 160 384 80 388.5L0 393Z" fill="#f2f2f2"></path><path d="M0 455L80 450.5C160 446 320 437 480 435.2C640 433.3 800 438.7 880 441.3L960 444L960 415L880 412.3C800 409.7 640 404.3 480 404.3C320 404.3 160 409.7 80 412.3L0 415Z" fill="#e9e9e9"></path><path d="M0 519L80 517.3C160 515.7 320 512.3 480 510.7C640 509 800 509 880 509L960 509L960 442L880 439.3C800 436.7 640 431.3 480 433.2C320 435 160 444 80 448.5L0 453Z" fill="#e1e1e1"></path><path d="M0 541L80 541C160 541 320 541 480 541C640 541 800 541 880 541L960 541L960 507L880 507C800 507 640 507 480 508.7C320 510.3 160 513.7 80 515.3L0 517Z" fill="#d8d8d8"></path></svg>