<?xml version="1.0" standalone="no"?>
<!DOCTYPE svg PUBLIC "-//W3C//DTD SVG 20010904//EN"
 "http://www.w3.org/TR/2001/REC-SVG-20010904/DTD/svg10.dtd">
<svg version="1.0" xmlns="http://www.w3.org/2000/svg"
 width="2315.000000pt" height="560.000000pt" viewBox="0 0 2315.000000 560.000000"
 preserveAspectRatio="xMidYMid meet">

<g transform="translate(0.000000,560.000000) scale(0.100000,-0.100000)"
fill="#000000" stroke="none">
<path d="M398 5402 l-398 -196 0 -2400 0 -2401 203 -203 202 -202 198 198 197
197 0 1003 0 1002 403 202 402 201 -402 199 -403 199 0 799 0 798 400 204 400
203 -392 197 c-216 108 -397 197 -403 197 -5 -1 -189 -89 -407 -197z"/>
<path d="M2001 5404 c-217 -107 -391 -197 -387 -201 3 -4 181 -95 394 -203
l387 -196 3 -802 2 -802 -397 -198 -396 -199 134 -70 c74 -39 252 -130 397
-202 l263 -132 399 202 400 201 0 1202 0 1203 -392 192 c-216 106 -397 195
-403 196 -5 2 -187 -84 -404 -191z"/>
<path d="M12133 5402 l-393 -197 0 -2402 0 -2403 398 -200 397 -200 390 196
c215 109 393 200 397 203 4 3 -171 96 -387 206 l-395 200 0 2000 0 2000 398
195 397 196 -398 202 c-219 111 -401 202 -405 201 -4 0 -184 -89 -399 -197z"/>
<path d="M13735 5398 l-400 -201 403 -198 403 -198 394 200 c217 110 395 203
395 206 0 4 -788 394 -793 392 -1 0 -182 -91 -402 -201z"/>
<path d="M3730 4204 l-200 -199 200 -200 200 -200 195 195 c107 107 195 199
195 205 0 6 -88 98 -195 205 l-194 194 -201 -200z"/>
<path d="M19010 4204 l-200 -199 200 -200 200 -200 195 195 c107 107 195 199
195 205 0 6 -88 98 -195 205 l-194 194 -201 -200z"/>
<path d="M3727 3002 l-197 -197 0 -1200 0 -1200 202 -202 201 -201 198 201
198 202 1 1200 0 1200 -198 198 c-108 108 -199 197 -202 197 -3 0 -94 -89
-203 -198z"/>
<path d="M5063 3002 l-393 -197 0 -1202 0 -1203 398 -200 397 -200 390 196
c215 109 393 200 397 203 4 3 -170 96 -387 206 l-395 200 0 800 0 800 398 195
397 196 -398 202 c-219 111 -401 202 -405 201 -4 0 -184 -89 -399 -197z"/>
<path d="M6665 2998 l-400 -201 403 -198 403 -198 394 200 c217 110 395 203
395 206 0 4 -788 394 -793 392 -1 0 -182 -91 -402 -201z"/>
<path d="M8597 3002 l-398 -196 403 -202 403 -202 398 201 398 201 -393 198
c-216 108 -397 197 -403 197 -5 -1 -189 -89 -408 -197z"/>
<path d="M10201 3004 c-217 -107 -391 -197 -387 -201 3 -4 181 -95 394 -203
l387 -196 0 -200 0 -199 -388 -196 c-214 -107 -389 -199 -389 -204 0 -4 175
-97 389 -206 l388 -197 3 -199 2 -198 -396 -198 c-225 -113 -393 -202 -388
-207 5 -5 183 -97 396 -205 l388 -196 400 202 400 202 0 1202 0 1202 -392 192
c-216 106 -397 195 -403 196 -5 2 -187 -84 -404 -191z"/>
<path d="M15678 3002 l-398 -196 0 -1203 0 -1203 403 -200 402 -200 399 201
399 201 -399 203 -399 203 -3 795 -2 795 400 203 401 203 -393 198 c-216 108
-397 197 -403 197 -5 -1 -189 -89 -407 -197z"/>
<path d="M17281 3004 c-217 -107 -391 -197 -387 -201 3 -4 181 -95 394 -203
l387 -196 3 -800 2 -799 -396 -198 c-225 -113 -393 -202 -388 -207 5 -5 183
-97 396 -205 l388 -196 400 202 400 202 0 1202 0 1202 -392 192 c-216 106
-397 195 -403 196 -5 2 -187 -84 -404 -191z"/>
<path d="M19007 3002 l-197 -197 0 -1200 0 -1200 202 -202 201 -201 198 201
198 202 1 1200 0 1200 -198 198 c-108 108 -199 197 -202 197 -3 0 -94 -89
-203 -198z"/>
<path d="M20348 3003 l-398 -197 0 -1200 0 -1201 203 -203 202 -202 198 198
197 197 0 1003 0 1003 403 198 402 198 -395 199 c-217 109 -399 200 -405 201
-5 1 -189 -87 -407 -194z"/>
<path d="M22175 3114 c-93 -47 -271 -138 -394 -202 l-225 -115 397 -199 397
-198 0 -998 0 -997 203 -203 203 -203 197 204 197 204 0 1200 0 1200 -392 192
c-216 106 -397 195 -403 197 -5 1 -86 -35 -180 -82z"/>
<path d="M8603 1806 l-403 -201 0 -602 0 -603 403 -200 402 -200 399 201 399
201 -399 203 -399 203 -3 196 -2 195 401 202 401 201 -153 80 c-85 44 -264
135 -399 203 l-245 123 -402 -202z"/>
<path d="M6660 601 l-395 -199 403 -201 403 -202 387 196 c213 108 391 200
396 205 9 9 -762 401 -786 399 -7 0 -191 -89 -408 -198z"/>
<path d="M13730 601 l-395 -199 403 -201 403 -202 387 196 c213 108 391 200
396 205 9 9 -762 401 -786 399 -7 0 -191 -89 -408 -198z"/>
</g>
</svg>
