<?xml version="1.0" standalone="no"?>
<!DOCTYPE svg PUBLIC "-//W3C//DTD SVG 20010904//EN"
 "http://www.w3.org/TR/2001/REC-SVG-20010904/DTD/svg10.dtd">
<svg version="1.0" xmlns="http://www.w3.org/2000/svg"
 width="940.000000pt" height="670.000000pt" viewBox="0 0 940.000000 670.000000"
 preserveAspectRatio="xMidYMid meet">

<g transform="translate(0.000000,670.000000) scale(0.100000,-0.100000)"
fill="#000000" stroke="none">
<path d="M4458 6460 l-237 -236 242 -241 242 -241 234 240 235 239 -235 238
c-129 131 -236 238 -239 237 -3 0 -112 -106 -242 -236z"/>
<path d="M475 5022 l-470 -237 -3 -2150 -2 -2149 240 -241 240 -241 240 241
240 240 0 475 0 475 466 235 c256 129 466 240 466 245 0 6 -204 114 -453 240
-250 127 -460 234 -467 238 -9 6 -12 218 -12 962 l0 953 467 235 c257 129 469
239 470 244 3 8 -913 466 -940 470 -7 1 -223 -105 -482 -235z"/>
<path d="M2388 5027 c-258 -128 -468 -235 -468 -238 0 -3 210 -112 468 -242
l467 -236 0 -956 0 -956 -467 -237 c-258 -130 -468 -239 -468 -242 0 -3 213
-113 473 -244 l472 -239 483 242 482 242 0 1435 0 1435 -62 28 c-35 16 -251
121 -482 235 -230 113 -421 206 -425 205 -3 0 -216 -105 -473 -232z"/>
<path d="M4457 5022 l-237 -237 0 -1434 0 -1433 241 -240 240 -240 234 238
234 239 0 1440 1 1440 -233 233 c-127 127 -234 232 -237 232 -3 0 -112 -107
-243 -238z"/>
<path d="M6052 5024 l-472 -234 2 -1436 3 -1435 474 -240 473 -240 474 238
c260 131 474 240 474 243 0 3 -201 106 -446 230 -245 124 -459 233 -475 242
l-29 18 2 947 3 948 473 234 c259 129 472 237 472 240 0 6 -942 482 -950 480
-3 0 -218 -106 -478 -235z"/>
<path d="M7973 5022 c-260 -130 -473 -240 -473 -244 0 -4 42 -27 93 -51 50
-25 247 -121 437 -214 190 -94 362 -178 382 -187 l37 -18 467 235 c258 129
470 239 471 244 3 7 -928 475 -939 472 -2 0 -216 -107 -475 -237z"/>
<path d="M7968 2164 c-258 -128 -468 -237 -468 -241 0 -5 214 -115 476 -246
l475 -238 467 236 c257 130 470 240 474 243 7 7 -930 483 -948 481 -5 0 -219
-106 -476 -235z"/>
</g>
</svg>
